<?xml version="1.0" encoding="UTF-8" standalone="no"?>
<!-- Created with Inkscape (http://www.inkscape.org/) -->

<svg
   width="150mm"
   height="148mm"
   viewBox="0 0 566.92915 559.37006"
   version="1.1"
   id="svg1"
   inkscape:version="1.3.2 (091e20e, 2023-11-25, custom)"
   sodipodi:docname="methodo_econometrie.svg"
   xml:space="preserve"
   xmlns:inkscape="http://www.inkscape.org/namespaces/inkscape"
   xmlns:sodipodi="http://sodipodi.sourceforge.net/DTD/sodipodi-0.dtd"
   xmlns="http://www.w3.org/2000/svg"
   xmlns:svg="http://www.w3.org/2000/svg"><sodipodi:namedview
     id="namedview1"
     pagecolor="#ffffff"
     bordercolor="#000000"
     borderopacity="0.25"
     inkscape:showpageshadow="2"
     inkscape:pageopacity="0.0"
     inkscape:pagecheckerboard="0"
     inkscape:deskcolor="#d1d1d1"
     inkscape:document-units="mm"
     inkscape:zoom="1.0378365"
     inkscape:cx="353.13849"
     inkscape:cy="344.4666"
     inkscape:window-width="1920"
     inkscape:window-height="1017"
     inkscape:window-x="1072"
     inkscape:window-y="1072"
     inkscape:window-maximized="1"
     inkscape:current-layer="layer1" /><defs
     id="defs1"><rect
   x="111.73775"
   y="52.462234"
   width="24.5278"
   height="40.879665"
   id="rect2" /><marker
   style="overflow:visible"
   id="Triangle-3"
   refX="0"
   refY="0"
   orient="auto-start-reverse"
   inkscape:stockid="Triangle arrow"
   markerWidth="1"
   markerHeight="1"
   viewBox="0 0 1 1"
   inkscape:isstock="true"
   inkscape:collect="always"
   preserveAspectRatio="xMidYMid"><path
     transform="scale(0.5)"
     style="fill:context-stroke;fill-rule:evenodd;stroke:context-stroke;stroke-width:1pt"
     d="M 5.77,0 -2.88,5 V -5 Z"
     id="path135-9" /></marker><marker
   style="overflow:visible"
   id="Triangle"
   refX="0"
   refY="0"
   orient="auto-start-reverse"
   inkscape:stockid="Triangle arrow"
   markerWidth="1"
   markerHeight="1"
   viewBox="0 0 1 1"
   inkscape:isstock="true"
   inkscape:collect="always"
   preserveAspectRatio="xMidYMid"><path
     transform="scale(0.5)"
     style="fill:context-stroke;fill-rule:evenodd;stroke:context-stroke;stroke-width:1pt"
     d="M 5.77,0 -2.88,5 V -5 Z"
     id="path135" /></marker>
		
	</defs><g
     inkscape:label="Calque 1"
     inkscape:groupmode="layer"
     id="layer1"><rect
       style="fill:#87cdde;stroke-width:0.681733"
       id="rect1"
       width="150.5005"
       height="121.47221"
       x="18.347429"
       y="40.625824"
       ry="16.077206" /><text
       xml:space="preserve"
       style="white-space:pre;inline-size:57.6103;display:inline;fill:#1c2422"
       x="111.73775"
       y="53.82489"
       id="text1"
       transform="matrix(1.1793749,0,0,1.1793749,-64.964079,-4.87308)"><tspan
         x="111.73775"
         y="53.82489"
         id="tspan3">WILIAM</tspan></text><text
       xml:space="preserve"
       id="text2"
       style="white-space:pre;shape-inside:url(#rect2);display:inline;fill:#1c2422" /><rect
       style="fill:#008080;stroke-width:0.655469"
       id="rect3-4"
       width="33.494179"
       height="26.348755"
       x="28.459604"
       y="116.55248"
       ry="7.8153076" /><rect
       style="fill:#decd87;stroke-width:0.655469"
       id="rect3-0-1"
       width="33.494179"
       height="26.348755"
       x="75.869835"
       y="117.14977"
       ry="7.8153076"
       inkscape:transform-center-x="43.31914"
       inkscape:transform-center-y="-9.3783563" /><rect
       style="fill:#5aa02c;stroke-width:0.655469"
       id="rect3-1-5"
       width="33.494179"
       height="26.348755"
       x="123.28008"
       y="118.17078"
       ry="7.8153076" /><rect
       style="fill:#ff5555;stroke-width:0.655469"
       id="rect3-4-8"
       width="33.494179"
       height="26.348755"
       x="28.992683"
       y="77.728065"
       ry="7.8153076" /><rect
       style="fill:#de8787;stroke-width:0.655469"
       id="rect3-0-1-1"
       width="33.494179"
       height="26.348755"
       x="76.402916"
       y="78.325333"
       ry="7.8153076"
       inkscape:transform-center-x="43.319136"
       inkscape:transform-center-y="-9.3783701" /><rect
       style="fill:#ff80b2;stroke-width:0.655469"
       id="rect3-1-5-8"
       width="33.494179"
       height="26.348755"
       x="123.81315"
       y="79.346352"
       ry="7.8153076" /><rect
       style="fill:#e4c3ff;fill-opacity:1;stroke-width:0.771352"
       id="rect1-07"
       width="192.66888"
       height="121.47221"
       x="344.34909"
       y="42.520103"
       ry="16.077206" /><text
       xml:space="preserve"
       style="white-space:pre;inline-size:80.7182;display:inline;fill:#1c2422"
       x="111.73775"
       y="53.82489"
       id="text1-1"
       transform="matrix(1.1793749,0,0,1.1793749,250.60743,-0.28715596)"><tspan
         x="111.73775"
         y="53.82489"
         id="tspan7">WILIAM + DF </tspan></text><rect
       style="fill:#008080;stroke-width:0.655469"
       id="rect3-4-3"
       width="33.494179"
       height="26.348755"
       x="354.46124"
       y="118.44676"
       ry="7.8153076" /><rect
       style="fill:#decd87;stroke-width:0.655469"
       id="rect3-0-1-8"
       width="33.494179"
       height="26.348755"
       x="401.87146"
       y="119.04403"
       ry="7.8153076"
       inkscape:transform-center-x="43.319122"
       inkscape:transform-center-y="-9.3783742" /><rect
       style="fill:#5aa02c;stroke-width:0.655469"
       id="rect3-1-5-9"
       width="33.494179"
       height="26.348755"
       x="449.28174"
       y="120.06505"
       ry="7.8153076" /><rect
       style="fill:#ff5555;stroke-width:0.655469"
       id="rect3-4-8-1"
       width="33.494179"
       height="26.348755"
       x="354.99429"
       y="79.622337"
       ry="7.8153076" /><rect
       style="fill:#de8787;stroke-width:0.655469"
       id="rect3-0-1-1-7"
       width="33.494179"
       height="26.348755"
       x="402.40454"
       y="80.219612"
       ry="7.8153076"
       inkscape:transform-center-x="43.31913"
       inkscape:transform-center-y="-9.3783648" /><rect
       style="fill:#ff80b2;stroke-width:0.655469"
       id="rect3-1-5-8-9"
       width="33.494179"
       height="26.348755"
       x="449.81473"
       y="81.240631"
       ry="7.8153076" /><rect
       style="fill:#87debb;fill-opacity:1;stroke-width:0.333348"
       id="rect1-0"
       width="73.590324"
       height="59.396343"
       x="192.55904"
       y="41.512463"
       ry="7.8612804" /><text
       xml:space="preserve"
       style="white-space:pre;inline-size:57.6103;display:inline;fill:#1c2422"
       x="111.73775"
       y="53.82489"
       id="text1-8"
       transform="matrix(0.57667965,0,0,0.57667965,151.82217,19.264838)"><tspan
         x="111.73775"
         y="53.82489"
         id="tspan8">DICE</tspan></text><rect
       style="fill:#008080;stroke-width:0.320505"
       id="rect3-4-6"
       width="16.377668"
       height="12.883767"
       x="197.5036"
       y="78.638374"
       ry="3.8214552" /><rect
       style="fill:#decd87;stroke-width:0.320505"
       id="rect3-0-1-4"
       width="16.377668"
       height="12.883767"
       x="220.68581"
       y="78.93042"
       ry="3.8214552"
       inkscape:transform-center-x="21.181791"
       inkscape:transform-center-y="-4.5857435" /><rect
       style="fill:#5aa02c;stroke-width:0.320505"
       id="rect3-1-5-4"
       width="16.377668"
       height="12.883767"
       x="243.86801"
       y="79.429665"
       ry="3.8214552" /><rect
       style="fill:#ff5555;stroke-width:0.320505"
       id="rect3-4-8-9"
       width="16.377668"
       height="12.883767"
       x="197.76425"
       y="59.654366"
       ry="3.8214552" /><rect
       style="fill:#de8787;stroke-width:0.320505"
       id="rect3-0-1-1-2"
       width="16.377668"
       height="12.883767"
       x="220.94646"
       y="59.946415"
       ry="3.8214552"
       inkscape:transform-center-x="21.181796"
       inkscape:transform-center-y="-4.5857457" /><rect
       style="fill:#ff80b2;stroke-width:0.320505"
       id="rect3-1-5-8-4"
       width="16.377668"
       height="12.883767"
       x="244.12868"
       y="60.445663"
       ry="3.8214552" /><rect
       style="fill:#87b4de;fill-opacity:1;stroke-width:0.333348"
       id="rect1-0-3"
       width="73.590324"
       height="59.396343"
       x="226.28171"
       y="70.560883"
       ry="7.8612804" /><text
       xml:space="preserve"
       style="white-space:pre;inline-size:57.6103;display:inline;fill:#1c2422"
       x="111.73775"
       y="53.82489"
       id="text1-8-2"
       transform="matrix(0.57667965,0,0,0.57667965,185.54483,48.313261)"><tspan
         x="111.73775"
         y="53.82489"
         id="tspan9">FUND</tspan></text><rect
       style="fill:#008080;stroke-width:0.320505"
       id="rect3-4-6-1"
       width="16.377668"
       height="12.883767"
       x="231.22626"
       y="107.6868"
       ry="3.8214552" /><rect
       style="fill:#decd87;stroke-width:0.320505"
       id="rect3-0-1-4-1"
       width="16.377668"
       height="12.883767"
       x="254.40846"
       y="107.97885"
       ry="3.8214552"
       inkscape:transform-center-x="21.181789"
       inkscape:transform-center-y="-4.5857415" /><rect
       style="fill:#5aa02c;stroke-width:0.320505"
       id="rect3-1-5-4-6"
       width="16.377668"
       height="12.883767"
       x="277.59067"
       y="108.4781"
       ry="3.8214552" /><rect
       style="fill:#ff5555;stroke-width:0.320505"
       id="rect3-4-8-9-8"
       width="16.377668"
       height="12.883767"
       x="231.48692"
       y="88.702782"
       ry="3.8214552" /><rect
       style="fill:#de8787;stroke-width:0.320505"
       id="rect3-0-1-1-2-4"
       width="16.377668"
       height="12.883767"
       x="254.66913"
       y="88.994835"
       ry="3.8214552"
       inkscape:transform-center-x="21.181779"
       inkscape:transform-center-y="-4.5857448" /><rect
       style="fill:#ff80b2;stroke-width:0.320505"
       id="rect3-1-5-8-4-6"
       width="16.377668"
       height="12.883767"
       x="277.85132"
       y="89.494087"
       ry="3.8214552" /><rect
       style="fill:#87debb;fill-opacity:1;stroke-width:0.333348"
       id="rect1-0-0"
       width="73.590324"
       height="59.396343"
       x="261.52689"
       y="100.02761"
       ry="7.8612804" /><text
       xml:space="preserve"
       style="white-space:pre;inline-size:57.6103;display:inline;fill:#1c2422"
       x="111.73775"
       y="53.82489"
       id="text1-8-4"
       transform="matrix(0.57667965,0,0,0.57667965,220.79,77.779984)"><tspan
         x="111.73775"
         y="53.82489"
         id="tspan10">DEFINE</tspan></text><rect
       style="fill:#008080;stroke-width:0.320505"
       id="rect3-4-6-2"
       width="16.377668"
       height="12.883767"
       x="266.47141"
       y="137.15352"
       ry="3.8214552" /><rect
       style="fill:#decd87;stroke-width:0.320505"
       id="rect3-0-1-4-6"
       width="16.377668"
       height="12.883767"
       x="289.65363"
       y="137.44556"
       ry="3.8214552"
       inkscape:transform-center-x="21.181794"
       inkscape:transform-center-y="-4.5857447" /><rect
       style="fill:#5aa02c;stroke-width:0.320505"
       id="rect3-1-5-4-3"
       width="16.377668"
       height="12.883767"
       x="312.83582"
       y="137.94482"
       ry="3.8214552" /><rect
       style="fill:#ff5555;stroke-width:0.320505"
       id="rect3-4-8-9-3"
       width="16.377668"
       height="12.883767"
       x="266.73209"
       y="118.16951"
       ry="3.8214552" /><rect
       style="fill:#de8787;stroke-width:0.320505"
       id="rect3-0-1-1-2-7"
       width="16.377668"
       height="12.883767"
       x="289.91428"
       y="118.46156"
       ry="3.8214552"
       inkscape:transform-center-x="21.181798"
       inkscape:transform-center-y="-4.5857404" /><rect
       style="fill:#ff80b2;stroke-width:0.320505"
       id="rect3-1-5-8-4-0"
       width="16.377668"
       height="12.883767"
       x="313.0965"
       y="118.96082"
       ry="3.8214552" /><rect
       style="fill:#ff5555;stroke-width:0.655469"
       id="rect3-4-8-1-0"
       width="33.494179"
       height="26.348755"
       x="496.51538"
       y="47.505356"
       ry="7.8153076" /><rect
       style="fill:#ff5555;stroke-width:0.655469"
       id="rect3-4-8-1-8"
       width="33.494179"
       height="26.348755"
       x="494.5275"
       y="81.598244"
       ry="7.8153076" /><rect
       style="fill:#ff5555;stroke-width:0.655469"
       id="rect3-4-8-1-6"
       width="33.494179"
       height="26.348755"
       x="492.88522"
       y="120.06505"
       ry="7.8153076" /><g
       id="g3"
       transform="matrix(0.69837238,0,0,0.69837238,-6.3614211,9.3989477)"><rect
         style="fill:#e4c3ff;fill-opacity:1;stroke-width:0.549684"
         id="rect1-07-3"
         width="137.30031"
         height="86.563919"
         x="350.47549"
         y="313.87885"
         ry="11.45699" /><text
         xml:space="preserve"
         style="white-space:pre;inline-size:80.7182;display:inline;fill:#1c2422"
         x="111.73775"
         y="53.82489"
         id="text1-1-8"
         transform="matrix(0.84044988,0,0,0.84044988,283.67302,283.3734)"><tspan
           x="111.73775"
           y="53.82489"
           id="tspan12">WILIAM + DF </tspan></text><rect
         style="fill:#008080;stroke-width:0.467102"
         id="rect3-4-3-6"
         width="23.868729"
         height="18.776731"
         x="357.68164"
         y="367.98593"
         ry="5.5693693" /><rect
         style="fill:#decd87;stroke-width:0.467102"
         id="rect3-0-1-8-1"
         width="23.868729"
         height="18.776731"
         x="391.46729"
         y="368.41159"
         ry="5.5693693"
         inkscape:transform-center-x="30.870209"
         inkscape:transform-center-y="-6.6832266" /><rect
         style="fill:#5aa02c;stroke-width:0.467102"
         id="rect3-1-5-9-5"
         width="23.868729"
         height="18.776731"
         x="425.25293"
         y="369.13916"
         ry="5.5693693" /><rect
         style="fill:#ff5555;stroke-width:0.467102"
         id="rect3-4-8-1-4"
         width="23.868729"
         height="18.776731"
         x="358.06152"
         y="340.31879"
         ry="5.5693693" /><rect
         style="fill:#de8787;stroke-width:0.467102"
         id="rect3-0-1-1-7-2"
         width="23.868729"
         height="18.776731"
         x="391.84714"
         y="340.74438"
         ry="5.5693693"
         inkscape:transform-center-x="30.870231"
         inkscape:transform-center-y="-6.6832506" /><rect
         style="fill:#ff80b2;stroke-width:0.467102"
         id="rect3-1-5-8-9-7"
         width="23.868729"
         height="18.776731"
         x="425.63275"
         y="341.47202"
         ry="5.5693693" /><rect
         style="fill:#ff5555;stroke-width:0.467102"
         id="rect3-4-8-1-0-6"
         width="23.868729"
         height="18.776731"
         x="458.91269"
         y="317.43146"
         ry="5.5693693" /><rect
         style="fill:#ff5555;stroke-width:0.467102"
         id="rect3-4-8-1-8-6"
         width="23.868729"
         height="18.776731"
         x="457.49612"
         y="341.72684"
         ry="5.5693693" /><rect
         style="fill:#ff5555;stroke-width:0.467102"
         id="rect3-4-8-1-6-8"
         width="23.868729"
         height="18.776731"
         x="456.32578"
         y="369.13916"
         ry="5.5693693" /></g><path
       d="M 59.11906,254.82429 H 28.687093 a 1.0144002,1.0144002 0 1 1 0,-2.0288 H 59.11906 a 1.0144002,1.0144002 0 1 1 0,2.0288 z"
       class="clr-i-outline clr-i-outline-path-1"
       id="path1"
       style="fill:#ef8080;fill-opacity:1;stroke:none;stroke-width:1.01357;stroke-dasharray:none;stroke-opacity:1" /><path
       d="m 59.11906,250.7667 h -0.628928 a 8.2267747,8.2267747 0 0 1 -8.115191,-6.76604 c -0.770943,-3.94602 -2.525854,-10.53961 -6.471864,-10.53961 -3.946013,0 -5.771931,6.60374 -6.471866,10.53961 a 8.2267747,8.2267747 0 0 1 -8.115191,6.74574 h -0.628927 a 1.0143989,1.0143989 0 1 1 0,-2.02879 h 0.608639 a 6.1979771,6.1979771 0 0 0 6.086394,-5.05171 c 1.430303,-7.99346 4.361916,-12.17278 8.47023,-12.17278 4.108316,0 7.029784,4.2199 8.449943,12.17278 a 6.1979771,6.1979771 0 0 0 6.086393,5.072 h 0.730368 a 1.0144002,1.0144002 0 0 1 0,2.0288 z"
       class="clr-i-outline clr-i-outline-path-2"
       id="path2"
       style="fill:#ef8080;fill-opacity:1;stroke:none;stroke-width:1.01357;stroke-dasharray:none;stroke-opacity:1" /><rect
       x="25.643896"
       y="225.40672"
       width="36.518356"
       height="36.518356"
       fill-opacity="0"
       id="rect2-7"
       style="fill:#000000;stroke:none;stroke-width:1.01357;stroke-dasharray:none;stroke-opacity:1" /><text
       xml:space="preserve"
       style="font-size:6.25149px;fill:#ef8080;fill-opacity:1;stroke:none;stroke-width:0.756086;stroke-dasharray:none;stroke-opacity:1"
       x="28.039619"
       y="261.63162"
       id="text4"><tspan
         sodipodi:role="line"
         id="tspan4"
         x="28.039619"
         y="261.63162"
         style="stroke-width:0.756086">Variable A</tspan></text><path
       d="M 97.863974,275.64084 H 67.432013 a 1.0144002,1.0144002 0 1 1 0,-2.0288 h 30.431961 a 1.0144002,1.0144002 0 1 1 0,2.0288 z"
       class="clr-i-outline clr-i-outline-path-1"
       id="path1-6"
       style="fill:#ed80ef;fill-opacity:1;stroke:none;stroke-width:1.01357;stroke-dasharray:none;stroke-opacity:1" /><path
       d="m 97.863974,271.58325 h -0.628926 a 8.2267747,8.2267747 0 0 1 -8.115194,-6.76604 c -0.770933,-3.94601 -2.525845,-10.5396 -6.471862,-10.5396 -3.946006,0 -5.771928,6.60373 -6.471858,10.5396 a 8.2267747,8.2267747 0 0 1 -8.115194,6.74575 h -0.628927 a 1.0144,1.0144 0 1 1 0,-2.0288 h 0.608639 a 6.1979771,6.1979771 0 0 0 6.086394,-5.05171 c 1.430302,-7.99346 4.361915,-12.17278 8.470231,-12.17278 4.108319,0 7.029781,4.2199 8.449942,12.17278 a 6.1979771,6.1979771 0 0 0 6.086393,5.072 h 0.730362 a 1.0144002,1.0144002 0 0 1 0,2.0288 z"
       class="clr-i-outline clr-i-outline-path-2"
       id="path2-7"
       style="fill:#ed80ef;fill-opacity:1;stroke:none;stroke-width:1.01357;stroke-dasharray:none;stroke-opacity:1" /><text
       xml:space="preserve"
       style="font-size:6.25149px;fill:#ed80ef;fill-opacity:1;stroke:none;stroke-width:0.756086;stroke-dasharray:none;stroke-opacity:1"
       x="66.784538"
       y="282.44815"
       id="text4-4"><tspan
         sodipodi:role="line"
         id="tspan4-0"
         x="66.784538"
         y="282.44815"
         style="fill:#ed80ef;fill-opacity:1;stroke-width:0.756086">Variable B</tspan></text><path
       d="M 56.076391,289.06379 H 25.644425 a 1.0143999,1.0143999 0 1 1 0,-2.02879 h 30.431966 a 1.0143999,1.0143999 0 1 1 0,2.02879 z"
       class="clr-i-outline clr-i-outline-path-1"
       id="path1-9"
       style="fill:#f3934a;fill-opacity:1;stroke:none;stroke-width:1.01357;stroke-dasharray:none;stroke-opacity:1" /><path
       d="m 56.076391,285.0062 h -0.628927 a 8.2267747,8.2267747 0 0 1 -8.115191,-6.76604 c -0.770943,-3.94601 -2.525853,-10.53961 -6.471864,-10.53961 -3.946013,0 -5.771931,6.60373 -6.471866,10.53961 a 8.2267747,8.2267747 0 0 1 -8.115191,6.74574 h -0.628927 a 1.0143989,1.0143989 0 1 1 0,-2.02879 h 0.608639 a 6.1979771,6.1979771 0 0 0 6.086394,-5.05171 c 1.430302,-7.99345 4.361915,-12.17278 8.47023,-12.17278 4.108316,0 7.029784,4.2199 8.449943,12.17278 a 6.1979771,6.1979771 0 0 0 6.086393,5.072 h 0.730367 a 1.0144002,1.0144002 0 0 1 0,2.0288 z"
       class="clr-i-outline clr-i-outline-path-2"
       id="path2-3"
       style="fill:#f3934a;fill-opacity:1;stroke:none;stroke-width:1.01357;stroke-dasharray:none;stroke-opacity:1" /><text
       xml:space="preserve"
       style="font-size:6.25149px;fill:#f3934a;fill-opacity:1;stroke:none;stroke-width:0.756086;stroke-dasharray:none;stroke-opacity:1"
       x="24.996952"
       y="295.87112"
       id="text4-6"><tspan
         sodipodi:role="line"
         id="tspan4-2"
         x="24.996952"
         y="295.87112"
         style="fill:#f3934a;fill-opacity:1;stroke-width:0.756086">Variable C</tspan></text><circle
       style="fill:#f34aa1;fill-opacity:1;stroke:none;stroke-width:1.01357;stroke-dasharray:none;stroke-opacity:1"
       id="path4"
       cx="147.85493"
       cy="242.05324"
       r="19.177986" /><text
       xml:space="preserve"
       style="font-size:8.38046px;fill:#f34aa1;fill-opacity:1;stroke:none;stroke-width:1.01357;stroke-dasharray:none;stroke-opacity:1"
       x="126.32175"
       y="269.64264"
       id="text5"><tspan
         sodipodi:role="line"
         id="tspan5"
         x="126.32175"
         y="269.64264"
         style="stroke-width:1.01357">Scenario 1</tspan><tspan
         sodipodi:role="line"
         x="126.32175"
         y="280.11819"
         id="tspan6"
         style="stroke-width:1.01357" /></text><circle
       style="fill:#46ae22;fill-opacity:1;stroke:none;stroke-width:1.01357;stroke-dasharray:none;stroke-opacity:1"
       id="path4-8"
       cx="197.05406"
       cy="220.287"
       r="19.177986" /><text
       xml:space="preserve"
       style="font-size:8.38046px;fill:#46ae22;fill-opacity:1;stroke:none;stroke-width:1.01357;stroke-dasharray:none;stroke-opacity:1"
       x="175.52089"
       y="247.87637"
       id="text5-3"><tspan
         sodipodi:role="line"
         id="tspan5-7"
         x="175.52089"
         y="247.87637"
         style="stroke-width:1.01357">Scenario 2</tspan><tspan
         sodipodi:role="line"
         x="175.52089"
         y="258.35193"
         id="tspan6-4"
         style="stroke-width:1.01357" /></text><circle
       style="fill:#f3b84a;fill-opacity:1;stroke:none;stroke-width:1.01357;stroke-dasharray:none;stroke-opacity:1"
       id="path4-5"
       cx="196.2048"
       cy="281.31091"
       r="19.177986" /><text
       xml:space="preserve"
       style="font-size:8.38046px;fill:#f3b84a;fill-opacity:1;stroke:none;stroke-width:1.01357;stroke-dasharray:none;stroke-opacity:1"
       x="174.67162"
       y="308.9003"
       id="text5-1"><tspan
         sodipodi:role="line"
         id="tspan5-2"
         x="174.67162"
         y="308.9003"
         style="stroke-width:1.01357">Scenario 3</tspan><tspan
         sodipodi:role="line"
         x="174.67162"
         y="319.37585"
         id="tspan6-8"
         style="stroke-width:1.01357" /></text><circle
       style="fill:#ed80ef;fill-opacity:1;stroke:none;stroke-width:1.01357;stroke-dasharray:none;stroke-opacity:1"
       id="path6"
       cx="141.40494"
       cy="234.25743"
       r="4.2056985" /><circle
       style="fill:#ed80ef;fill-opacity:1;stroke:none;stroke-width:1.01357;stroke-dasharray:none;stroke-opacity:1"
       id="path6-3"
       cx="191.31662"
       cy="212.00385"
       r="4.2056985" /><circle
       style="fill:#ed80ef;fill-opacity:1;stroke:none;stroke-width:1.01357;stroke-dasharray:none;stroke-opacity:1"
       id="path6-4"
       cx="187.12639"
       cy="276.25412"
       r="4.2056985" /><circle
       style="fill:#f3934a;fill-opacity:1;stroke:none;stroke-width:1.01357;stroke-dasharray:none;stroke-opacity:1"
       id="path6-7"
       cx="156.39798"
       cy="245.52573"
       r="4.2056985" /><circle
       style="fill:#f3934a;fill-opacity:1;stroke:none;stroke-width:1.01357;stroke-dasharray:none;stroke-opacity:1"
       id="path6-6"
       cx="203.18895"
       cy="283.93619"
       r="4.2056985" /><circle
       style="fill:#f3934a;fill-opacity:1;stroke:none;stroke-width:1.01357;stroke-dasharray:none;stroke-opacity:1"
       id="path6-6-7"
       cx="206.68082"
       cy="220.38432"
       r="4.2056985" /><circle
       style="fill:#f08080;fill-opacity:0.839216;stroke:none;stroke-width:1.01357;stroke-dasharray:none;stroke-opacity:1"
       id="path6-6-8"
       cx="141.0338"
       cy="248.3192"
       r="4.2056985" /><circle
       style="fill:#f08080;fill-opacity:0.839216;stroke:none;stroke-width:1.01357;stroke-dasharray:none;stroke-opacity:1"
       id="path6-6-8-5"
       cx="190.61826"
       cy="227.36804"
       r="4.2056985" /><circle
       style="fill:#f08080;fill-opacity:0.839216;stroke:none;stroke-width:1.01357;stroke-dasharray:none;stroke-opacity:1"
       id="path6-6-8-8"
       cx="190.61826"
       cy="288.8248"
       r="4.2056985" /><path
       style="fill:none;fill-opacity:0.839216;stroke:#ed80ef;stroke-width:1.01357;stroke-dasharray:2.02715, 2.02715;stroke-dashoffset:0;stroke-opacity:1;marker-end:url(#Triangle-3)"
       d="m 84.895616,249.11982 c 5.434203,-26.91673 41.265844,-53.62946 94.628234,-40.29059"
       id="path7"
       sodipodi:nodetypes="cc" /><path
       style="fill:none;fill-opacity:0.839216;stroke:#ed80ef;stroke-width:1.01357;stroke-dasharray:2.02715, 2.02715;stroke-dashoffset:0;stroke-opacity:1;marker-end:url(#Triangle-3)"
       d="m 100.75474,276.84899 c 16.87369,12.78507 57.07927,8.27843 76.79606,2.77576"
       id="path7-8"
       sodipodi:nodetypes="cc" /><path
       style="fill:none;fill-opacity:0.839216;stroke:#ed80ef;stroke-width:1.01357;stroke-dasharray:2.02715, 2.02715;stroke-dashoffset:0;stroke-opacity:1;marker-end:url(#Triangle)"
       d="M 88.631386,249.84879 C 97.681243,230.5658 116.01179,229.5277 130.95618,232.81798"
       id="path7-3"
       sodipodi:nodetypes="cc" /><path
       style="fill:none;fill-opacity:0.839216;stroke:#46ae22;stroke-width:1.01357;stroke-dasharray:none;stroke-dashoffset:0;stroke-opacity:1;marker-end:url(#Triangle-3)"
       d="m 207.87675,228.39532 c 5.44323,5.51514 11.21155,11.39986 27.12177,12.7282 v 0"
       id="path8"
       sodipodi:nodetypes="ccc" /><path
       style="fill:none;fill-opacity:0.839216;stroke:#f34aa1;stroke-width:1.01357;stroke-dasharray:none;stroke-dashoffset:0;stroke-opacity:1;marker-end:url(#Triangle-3)"
       d="m 163.38754,250.28307 c 17.46601,11.73327 45.67187,7.50454 71.37307,7.73208"
       id="path9"
       sodipodi:nodetypes="cc" /><path
       style="fill:none;fill-opacity:0.839216;stroke:#f3b84a;stroke-width:1.01357;stroke-dasharray:none;stroke-dashoffset:0;stroke-opacity:1;marker-end:url(#Triangle-3)"
       d="m 213.94346,276.33424 c 3.36637,-3.95254 12.69484,-6.51371 20.81714,-6.66149"
       id="path10"
       sodipodi:nodetypes="cc" /><g
       id="g2"
       transform="matrix(0.5325455,0.72241901,-0.72241901,0.5325455,404.17271,236.71651)">
	<g
   id="g11"
   transform="matrix(0.69837238,0,0,0.69837238,-124.97624,68.962787)"><text
     xml:space="preserve"
     style="fill:none;fill-opacity:0.839216;stroke:#e4c3ff;stroke-width:1.45134;stroke-dasharray:none;stroke-dashoffset:0;stroke-opacity:1"
     x="383.92819"
     y="275.93774"
     id="text11"
     transform="matrix(0.66114154,-0.89686462,0.89686462,0.66114154,-479.51803,205.98509)"><tspan
       sodipodi:role="line"
       id="tspan11"
       x="383.92819"
       y="275.93774">X 50</tspan></text><path
     style="fill:#e4c3ff;fill-opacity:1"
     d="m 42.379,14.451 c -0.645,0.521 -0.746,1.465 -0.226,2.109 2.942,3.647 4.497,8.058 4.496,12.754 0,11.209 -9.119,20.328 -20.329,20.328 -11.21,0 -20.329,-9.119 -20.329,-20.328 0,-7.799 4.537,-14.767 11.219,-18.149 2.463,-1.247 4.161,0.491 3.503,3.173 l -1.262,5.14 c -0.198,0.804 0.294,1.616 1.099,1.814 0.12,0.029 0.241,0.043 0.359,0.043 0.675,0 1.288,-0.458 1.456,-1.143 L 25.681,6.695 C 25.866,5.943 25.447,5.173 24.714,4.92 L 10.72,0.083 C 10.328,-0.052 9.919,-0.017 9.574,0.151 8.989,0.436 8.597,1.571 8.881,2.157 9.049,2.503 9.349,2.784 9.74,2.919 l 6.18,2.136 c 2.61,0.901 2.517,2.134 0.047,3.369 -7.725,3.865 -12.975,11.9 -12.975,20.89 0,12.863 10.465,23.328 23.329,23.328 12.863,0 23.329,-10.465 23.329,-23.328 0,-5.312 -1.833,-10.51 -5.161,-14.637 -0.521,-0.645 -1.464,-0.746 -2.11,-0.226 z"
     id="path1-5" /></g>
<path
   style="fill:#e4c3ff;fill-opacity:1;stroke:#e4c3ff;stroke-width:4.07033;stroke-dasharray:none;stroke-dashoffset:0;stroke-opacity:1;marker-end:url(#Triangle-3)"
   d="M -22.58439,68.156191 11.140132,21.284854"
   id="path11" /><g
   id="g1"
   transform="matrix(0.10536044,-0.14292559,0.14292559,0.10536044,-10.520803,-19.546723)"
   style="fill:#000000">
	<path
   d="M 464.764,25.771 H 18.037 C 8.086,25.771 0,33.869 0,43.808 v 395.196 c 0,6.106 3.068,11.491 7.729,14.76 v 2.843 h 6.469 c 1.241,0.272 2.518,0.432 3.839,0.432 h 446.738 c 1.318,0 2.595,-0.159 3.83,-0.432 h 0.887 v -0.271 c 7.654,-2.093 13.317,-9.032 13.317,-17.331 V 43.813 c 10e-4,-9.944 -8.092,-18.042 -18.045,-18.042 z m 2.583,18.042 V 95.792 H 348.363 v -54.56 h 116.4 c 1.431,10e-4 2.584,1.16 2.584,2.581 z m -1.242,397.332 H 348.363 V 392.18 h 118.983 v 46.824 c 10e-4,0.916 -0.514,1.691 -1.241,2.141 z M 15.457,439.004 V 392.18 h 55.842 v 48.965 H 16.698 c -0.727,-0.45 -1.241,-1.225 -1.241,-2.141 z M 201.448,256.87 v 53.61 H 86.758 V 256.87 Z M 86.758,241.407 v -57.99 h 114.689 v 57.99 z m 114.69,84.536 v 50.773 H 86.758 v -50.773 z m 0,66.237 v 48.965 H 86.758 V 392.18 Z m 15.465,0 H 332.9 v 48.965 H 216.913 Z m 0,-15.463 V 325.938 H 332.9 v 50.779 z m 0,-66.237 V 256.87 H 332.9 v 53.61 z m 0,-69.073 v -57.99 H 332.9 v 57.99 z m 0,-73.453 V 111.252 H 332.9 v 56.702 z m 0,-72.167 V 41.227 H 332.9 v 54.56 z m -15.465,0 H 86.758 v -54.56 h 114.689 v 54.56 z m 0,15.465 v 56.702 H 86.758 V 111.252 Z M 71.299,167.954 H 15.457 v -56.702 h 55.842 z m 0,15.463 v 57.99 H 15.457 v -57.99 z m 0,73.453 v 53.61 H 15.457 v -53.61 z m 0,69.073 v 50.773 H 15.457 v -50.773 z m 277.064,50.774 v -50.779 h 118.983 v 50.779 z m 0,-66.237 v -53.61 h 118.983 v 53.61 z m 0,-69.073 v -57.99 h 118.983 v 57.99 z m 0,-73.453 v -56.702 h 118.983 v 56.702 z"
   id="path1-1"
   style="stroke-width:0.993786;stroke-dasharray:none" />
</g></g></g></svg>
